<svg width="32" height="26" viewBox="0 0 32 26" fill="none" xmlns="http://www.w3.org/2000/svg">
<path d="M31.2434 3.48389C30.0983 3.99043 28.8839 4.3231 27.6404 4.47089C28.9511 3.68704 29.932 2.45341 30.4004 0.99989C29.1704 1.73189 27.8219 2.24489 26.4164 2.52239C25.4724 1.51226 24.221 0.842335 22.8569 0.616767C21.4928 0.391199 20.0924 0.622626 18.8733 1.27507C17.6543 1.92751 16.685 2.96442 16.1161 4.22458C15.5472 5.48474 15.4106 6.89756 15.7274 8.24339C13.2331 8.11837 10.7929 7.47018 8.56538 6.34089C6.33781 5.2116 4.37264 3.62646 2.79745 1.68839C2.23988 2.64607 1.94688 3.73473 1.94845 4.84289C1.94845 7.01789 3.05545 8.93939 4.73845 10.0644C3.74246 10.033 2.76839 9.76406 1.89745 9.27989V9.35789C1.89775 10.8064 2.399 12.2103 3.31622 13.3315C4.23343 14.4526 5.51017 15.2221 6.92994 15.5094C6.00537 15.7599 5.03591 15.7969 4.09495 15.6174C4.49525 16.8642 5.27546 17.9547 6.32633 18.7361C7.37721 19.5174 8.64614 19.9506 9.95545 19.9749C8.65417 20.9969 7.16421 21.7524 5.57077 22.1981C3.97732 22.6439 2.31164 22.7713 0.668945 22.5729C3.53649 24.417 6.87459 25.3961 10.2839 25.3929C21.8234 25.3929 28.1339 15.8334 28.1339 7.54289C28.1339 7.27289 28.1264 6.99989 28.1144 6.73289C29.3427 5.84514 30.4028 4.74542 31.2449 3.48539L31.2434 3.48389Z" fill="#A1A6B4"/>
</svg>
