<svg version="1.0" xmlns="http://www.w3.org/2000/svg" xmlns:xlink="http://www.w3.org/1999/xlink" x="0px" y="0px"
	 viewBox="0 0 12.8 19" style="enable-background:new 0 0 12.8 19;" xml:space="preserve">
<path class="st0" d="M2.1,18V0.9h4.5c2.1,0,3.6,0.4,4.7,1.3c1,0.8,1.5,2.1,1.5,3.7c0,1.1-0.2,2-0.7,2.8c-0.5,0.8-1.2,1.4-2.2,1.8
	c-1,0.4-2.2,0.6-3.6,0.6h-2v7H2.1z M0,14.7v-1.6h8.2v1.6H0z M0,11V9.2h5.5V11H0z M6,9.2c1,0,1.8-0.1,2.5-0.3c0.7-0.2,1.2-0.6,1.6-1
	c0.4-0.5,0.6-1.1,0.6-2c0-1.1-0.3-1.9-1-2.4C8.9,3,7.8,2.7,6.4,2.7H4.2v6.5H6z"/>
</svg>